<svg xmlns="http://www.w3.org/2000/svg" viewBox="0 0 320 128" role="img" aria-labelledby="title">
  <title id="title">bibi</title>
  <g fill="none" stroke="#f0f6fc" stroke-linecap="round" stroke-linejoin="round" stroke-width="8">
    <path d="M40 20H24v88h16"/>
    <path d="M120 20h16v88h-16"/>
    <path d="M72 36v56m0-29c6-8 16-8 22-3 7 6 7 18 0 24-6 5-16 5-22-3"/>
    <path d="M184 36v56m0-29c6-8 16-8 22-3 7 6 7 18 0 24-6 5-16 5-22-3"/>
    <path d="M232 60v32"/>
    <circle cx="232" cy="44" r="4" fill="#f0f6fc" stroke="none"/>
    <path d="M256 36v56m0-29c6-8 16-8 22-3 7 6 7 18 0 24-6 5-16 5-22-3"/>
    <path d="M304 60v32"/>
    <circle cx="304" cy="44" r="4" fill="#f0f6fc" stroke="none"/>
  </g>
</svg>
